<svg fill="none" xmlns="http://www.w3.org/2000/svg">
    <defs>
        <symbol id="vk" viewBox="0 0 24 24" fill="none">
            <g clip-path="url(#clip0_207_60)">
            <path d="M12 24C18.6274 24 24 18.6274 24 12C24 5.37258 18.6274 0 12 0C5.37258 0 0 5.37258 0 12C0 18.6274 5.37258 24 12 24Z" fill="currentColor"/>
            <path fill-rule="evenodd" clip-rule="evenodd" d="M11.5467 17.2631H12.4885C12.4885 17.2631 12.773 17.2319 12.9183 17.0753C13.0519 16.9315 13.0477 16.6616 13.0477 16.6616C13.0477 16.6616 13.0293 15.3978 13.6158 15.2117C14.194 15.0284 14.9365 16.4331 15.7235 16.9732C16.3186 17.382 16.7708 17.2924 16.7708 17.2924L18.875 17.2631C18.875 17.2631 19.9758 17.1953 19.4539 16.3298C19.4111 16.259 19.1499 15.6896 17.8893 14.5195C16.5699 13.2948 16.7466 13.4929 18.336 11.3745C19.3039 10.0844 19.6909 9.29682 19.57 8.95949C19.4547 8.63819 18.7428 8.72311 18.7428 8.72311L16.3736 8.73787C16.3736 8.73787 16.1979 8.71392 16.0677 8.79178C15.9404 8.86815 15.8585 9.04612 15.8585 9.04612C15.8585 9.04612 15.4835 10.0444 14.9834 10.8935C13.9283 12.685 13.5065 12.7795 13.3341 12.6683C12.933 12.409 13.0331 11.6267 13.0331 11.071C13.0331 9.3349 13.2964 8.61103 12.5204 8.42364C12.2628 8.36139 12.0733 8.32032 11.4147 8.31369C10.5693 8.30492 9.85376 8.31626 9.44861 8.51477C9.17908 8.64675 8.97116 8.94088 9.0978 8.95778C9.25438 8.97874 9.60904 9.05339 9.79707 9.30945C10.0399 9.63972 10.0313 10.3816 10.0313 10.3816C10.0313 10.3816 10.1708 12.4253 9.70552 12.6792C9.38615 12.8533 8.94806 12.4978 8.00749 10.8725C7.52555 10.04 7.16168 9.11971 7.16168 9.11971C7.16168 9.11971 7.09152 8.94772 6.96638 8.85574C6.81451 8.74429 6.60231 8.70878 6.60231 8.70878L4.35089 8.72354C4.35089 8.72354 4.01291 8.73295 3.88884 8.87991C3.77846 9.01061 3.88007 9.281 3.88007 9.281C3.88007 9.281 5.6427 13.4048 7.63849 15.4829C9.46851 17.3882 11.5467 17.2631 11.5467 17.2631Z" fill="var(--icon-white)"/>
            </g>
            <defs>
                <clipPath id="clip0_207_60">
                <rect width="24" height="24" fill="var(--icon-white)"/>
                </clipPath>
            </defs>
        </symbol>

        <symbol id="youtube" viewBox="0 0 24 17" fill="none">
            <g clip-path="url(#clip0_207_63)">
            <path d="M15.9872 8.18054C13.7867 7.00497 11.6796 5.92422 9.52588 4.79584V11.5461C11.7923 10.3144 14.1812 9.18651 15.9965 8.18054H15.9872Z" fill="var(--icon-white)"/>
            <path d="M15.9872 8.18054C13.7867 7.00497 9.52588 4.79584 9.52588 4.79584L15.2066 8.61275C15.2066 8.61275 14.1718 9.18651 15.9872 8.18054Z" fill="#E8E0E0"/>
            <path d="M9.93971 16.8292C5.36902 16.745 3.8079 16.6694 2.84834 16.4717C2.19914 16.3404 1.63498 16.0489 1.22133 15.626C0.901622 15.306 0.647373 14.8177 0.450119 14.1402C0.280916 13.5758 0.215016 13.1062 0.121064 11.9591C-0.022758 9.37025 -0.0570438 7.2537 0.121064 4.88877C0.268003 3.58278 0.339246 2.03243 1.31528 1.12794C1.77613 0.704628 2.31224 0.432213 2.91424 0.319597C3.85465 0.141104 7.86119 0 12.0089 0C16.1472 0 20.1627 0.141104 21.104 0.319597C21.856 0.460701 22.5613 0.883566 22.9754 1.42884C23.866 2.82919 23.8816 4.57051 23.9719 5.93258C24.0094 6.58157 24.0094 10.2667 23.9719 10.9157C23.8312 13.0683 23.7181 13.8299 23.3984 14.6196C23.2007 15.1181 23.032 15.3812 22.7399 15.6727C22.2818 16.1214 21.6978 16.4198 21.0657 16.5283C17.1103 16.8256 13.7517 16.8901 9.93971 16.8292ZM15.9967 8.17955C13.7962 7.00399 11.6892 5.91389 9.53541 4.7855V11.5362C11.8018 10.3046 14.1911 9.17618 16.0061 8.17021L15.9967 8.17955Z" fill="currentColor"/>
            </g>
            <defs>
            <clipPath id="clip0_207_63">
            <rect width="24" height="16.852" fill="white"/>
            </clipPath>
            </defs>
        </symbol>

        <symbol id="odnoklassniki" viewBox="0 0 24 24">
            <path fill-rule="evenodd" clip-rule="evenodd" d="M22.5 4.5C22.5 2.8425 21.1575 1.5 19.5 1.5H4.5C2.8425 1.5 1.5 2.8425 1.5 4.5V19.5C1.5 21.1575 2.8425 22.5 4.5 22.5H19.5C21.1575 22.5 22.5 21.1575 22.5 19.5V4.5Z" fill="currentColor"/>
            <path fill-rule="evenodd" clip-rule="evenodd" d="M10.3651 15.5588L7.85264 17.9325C7.40264 18.36 7.38014 19.0725 7.80764 19.5225C8.23514 19.9725 8.94764 19.995 9.39764 19.5675L12.0001 17.1075L14.6026 19.5675C15.0526 19.995 15.7651 19.9725 16.1926 19.5225C16.6201 19.0725 16.5976 18.36 16.1476 17.9325L13.6351 15.5588C15.2364 15.195 16.3726 14.4338 16.3726 14.4338C16.8901 14.0888 17.0289 13.3913 16.6839 12.8738C16.3389 12.3563 15.6414 12.2175 15.1239 12.5625C15.1239 12.5625 13.7176 13.5 12.0001 13.5C10.2826 13.5 8.87264 12.5625 8.87264 12.5625C8.35514 12.2175 7.65764 12.3563 7.31264 12.8738C6.96764 13.3913 7.10639 14.0888 7.62389 14.4338C7.62389 14.4338 8.76014 15.1913 10.3614 15.5588H10.3651ZM12.0001 4.125C9.72389 4.125 7.87514 5.97375 7.87514 8.25C7.87514 10.5263 9.72389 12.375 12.0001 12.375C14.2764 12.375 16.1251 10.5263 16.1251 8.25C16.1251 5.97375 14.2764 4.125 12.0001 4.125ZM12.0001 6.375C13.0351 6.375 13.8751 7.215 13.8751 8.25C13.8751 9.285 13.0351 10.125 12.0001 10.125C10.9651 10.125 10.1251 9.285 10.1251 8.25C10.1251 7.215 10.9651 6.375 12.0001 6.375Z" fill="var(--icon-white)"/>
        </symbol>

        
    </defs>

</svg>